<svg xmlns="http://www.w3.org/2000/svg" width="16" viewBox="0 0 22 22">
    <path class="jp-icon-brand1 jp-icon-selectable" fill="#3F51B5" d="M 1.3085938 4.3085938 L 1.3085938 17.585938 L 14.585938 17.585938 L 14.585938 4.3085938 L 1.3085938 4.3085938 z M 6.3222656 7.6347656 A 0.50005 0.50005 0 0 1 6.609375 7.7011719 L 9.1425781 9.1621094 L 11.673828 10.625 A 0.50005 0.50005 0 0 1 11.673828 11.490234 L 9.1425781 12.951172 L 6.609375 14.414062 A 0.50005 0.50005 0 0 1 6.1347656 14.425781 A 0.50005 0.50005 0 0 1 5.859375 13.980469 L 5.859375 11.056641 L 5.859375 8.1347656 A 0.50005 0.50005 0 0 1 6.3222656 7.6347656 z "/>
</svg>
